<svg xmlns="http://www.w3.org/2000/svg" viewBox="0 0 1200 600" width="1200" height="600">
  <defs>
    <radialGradient id="bg" cx="50%" cy="50%" r="70%">
      <stop offset="0%" stop-color="#0a0e1a"/>
      <stop offset="100%" stop-color="#020408"/>
    </radialGradient>
    <radialGradient id="gS" cx="50%" cy="50%" r="50%">
      <stop offset="0%" stop-color="#00e5ff" stop-opacity="0.8"/>
      <stop offset="60%" stop-color="#00e5ff" stop-opacity="0.15"/>
      <stop offset="100%" stop-color="#00e5ff" stop-opacity="0"/>
    </radialGradient>
    <radialGradient id="gM" cx="50%" cy="50%" r="50%">
      <stop offset="0%" stop-color="#ff3d71" stop-opacity="0.8"/>
      <stop offset="60%" stop-color="#ff3d71" stop-opacity="0.15"/>
      <stop offset="100%" stop-color="#ff3d71" stop-opacity="0"/>
    </radialGradient>
    <radialGradient id="gI" cx="50%" cy="50%" r="50%">
      <stop offset="0%" stop-color="#a78bfa" stop-opacity="0.8"/>
      <stop offset="60%" stop-color="#a78bfa" stop-opacity="0.15"/>
      <stop offset="100%" stop-color="#a78bfa" stop-opacity="0"/>
    </radialGradient>
    <radialGradient id="gA" cx="50%" cy="50%" r="50%">
      <stop offset="0%" stop-color="#fbbf24" stop-opacity="0.8"/>
      <stop offset="60%" stop-color="#fbbf24" stop-opacity="0.15"/>
      <stop offset="100%" stop-color="#fbbf24" stop-opacity="0"/>
    </radialGradient>
    <filter id="gl" x="-100%" y="-100%" width="300%" height="300%">
      <feGaussianBlur in="SourceGraphic" stdDeviation="4"/>
    </filter>
    <pattern id="grid" width="40" height="40" patternUnits="userSpaceOnUse">
      <path d="M 40 0 L 0 0 0 40" fill="none" stroke="#334155" stroke-width="0.5"/>
    </pattern>
  </defs>

  <!-- Background -->
  <rect width="1200" height="600" fill="url(#bg)"/>
  <rect width="1200" height="600" fill="url(#grid)" opacity="0.04"/>

  <!-- Worm spine glow -->
  <path d="M 120,300 C 200,260 280,340 380,290 C 480,240 520,350 620,300 C 720,250 780,340 880,300 C 940,275 1000,310 1080,300" fill="none" stroke="#00e5ff" stroke-width="2" stroke-opacity="0.06" filter="url(#gl)"/>
  <path d="M 120,300 C 200,260 280,340 380,290 C 480,240 520,350 620,300 C 720,250 780,340 880,300 C 940,275 1000,310 1080,300" fill="none" stroke="#a78bfa" stroke-width="0.8" stroke-opacity="0.12" stroke-dasharray="2 8"/>

  <!-- ═══ SYNAPTIC CONNECTIONS ═══ -->

  <!-- Sensory cluster -->
  <line x1="95" y1="210" x2="140" y2="280" stroke="#00e5ff" stroke-width="0.6" stroke-opacity="0.12"/>
  <line x1="130" y1="185" x2="170" y2="265" stroke="#00e5ff" stroke-width="0.6" stroke-opacity="0.12"/>
  <line x1="80" y1="250" x2="150" y2="295" stroke="#00e5ff" stroke-width="0.6" stroke-opacity="0.12"/>
  <line x1="160" y1="195" x2="200" y2="270" stroke="#00e5ff" stroke-width="0.6" stroke-opacity="0.12"/>
  <line x1="95" y1="210" x2="130" y2="185" stroke="#00e5ff" stroke-width="0.6" stroke-opacity="0.12"/>
  <line x1="80" y1="250" x2="95" y2="210" stroke="#00e5ff" stroke-width="0.6" stroke-opacity="0.12"/>
  <line x1="130" y1="185" x2="160" y2="195" stroke="#00e5ff" stroke-width="0.6" stroke-opacity="0.12"/>
  <line x1="140" y1="280" x2="200" y2="270" stroke="#00e5ff" stroke-width="0.8" stroke-opacity="0.25" stroke-dasharray="4 6"/>
  <line x1="150" y1="295" x2="200" y2="270" stroke="#00e5ff" stroke-width="0.6" stroke-opacity="0.12"/>
  <line x1="200" y1="270" x2="280" y2="320" stroke="#00e5ff" stroke-width="0.8" stroke-opacity="0.25" stroke-dasharray="4 6"/>
  <line x1="160" y1="195" x2="280" y2="320" stroke="#00e5ff" stroke-width="0.6" stroke-opacity="0.12"/>
  <line x1="150" y1="295" x2="280" y2="340" stroke="#00e5ff" stroke-width="0.6" stroke-opacity="0.12"/>
  <line x1="110" y1="380" x2="170" y2="350" stroke="#00e5ff" stroke-width="0.6" stroke-opacity="0.12"/>
  <line x1="85" y1="355" x2="110" y2="380" stroke="#00e5ff" stroke-width="0.6" stroke-opacity="0.12"/>
  <line x1="85" y1="355" x2="150" y2="295" stroke="#00e5ff" stroke-width="0.6" stroke-opacity="0.12"/>
  <line x1="170" y1="350" x2="280" y2="340" stroke="#00e5ff" stroke-width="0.6" stroke-opacity="0.12"/>
  <line x1="145" y1="400" x2="170" y2="350" stroke="#00e5ff" stroke-width="0.6" stroke-opacity="0.12"/>
  <line x1="145" y1="400" x2="110" y2="380" stroke="#00e5ff" stroke-width="0.6" stroke-opacity="0.12"/>

  <!-- Interneuron cluster left -->
  <line x1="280" y1="320" x2="340" y2="230" stroke="#a78bfa" stroke-width="0.6" stroke-opacity="0.12"/>
  <line x1="280" y1="340" x2="320" y2="270" stroke="#a78bfa" stroke-width="0.8" stroke-opacity="0.25" stroke-dasharray="4 6"/>
  <line x1="340" y1="230" x2="320" y2="270" stroke="#a78bfa" stroke-width="0.6" stroke-opacity="0.12"/>
  <line x1="320" y1="270" x2="380" y2="290" stroke="#a78bfa" stroke-width="0.6" stroke-opacity="0.12"/>
  <line x1="340" y1="230" x2="380" y2="290" stroke="#a78bfa" stroke-width="0.6" stroke-opacity="0.12"/>
  <line x1="300" y1="190" x2="340" y2="230" stroke="#a78bfa" stroke-width="0.6" stroke-opacity="0.12"/>
  <line x1="300" y1="190" x2="280" y2="320" stroke="#a78bfa" stroke-width="0.6" stroke-opacity="0.12"/>
  <line x1="350" y1="370" x2="320" y2="270" stroke="#a78bfa" stroke-width="0.6" stroke-opacity="0.12"/>
  <line x1="350" y1="370" x2="380" y2="290" stroke="#a78bfa" stroke-width="0.6" stroke-opacity="0.12"/>
  <line x1="280" y1="340" x2="350" y2="370" stroke="#a78bfa" stroke-width="0.6" stroke-opacity="0.12"/>
  <line x1="310" y1="400" x2="350" y2="370" stroke="#a78bfa" stroke-width="0.6" stroke-opacity="0.12"/>
  <line x1="310" y1="400" x2="280" y2="340" stroke="#a78bfa" stroke-width="0.6" stroke-opacity="0.12"/>

  <!-- Central hub -->
  <line x1="380" y1="290" x2="470" y2="260" stroke="#a78bfa" stroke-width="0.8" stroke-opacity="0.25" stroke-dasharray="4 6"/>
  <line x1="380" y1="290" x2="520" y2="310" stroke="#a78bfa" stroke-width="0.6" stroke-opacity="0.12"/>
  <line x1="470" y1="260" x2="520" y2="310" stroke="#a78bfa" stroke-width="0.6" stroke-opacity="0.12"/>
  <line x1="470" y1="260" x2="510" y2="220" stroke="#a78bfa" stroke-width="0.6" stroke-opacity="0.12"/>
  <line x1="520" y1="310" x2="580" y2="280" stroke="#a78bfa" stroke-width="0.6" stroke-opacity="0.12"/>
  <line x1="510" y1="220" x2="580" y2="280" stroke="#a78bfa" stroke-width="0.8" stroke-opacity="0.25" stroke-dasharray="4 6"/>
  <line x1="450" y1="360" x2="520" y2="310" stroke="#a78bfa" stroke-width="0.6" stroke-opacity="0.12"/>
  <line x1="450" y1="360" x2="380" y2="290" stroke="#a78bfa" stroke-width="0.6" stroke-opacity="0.12"/>
  <line x1="490" y1="380" x2="450" y2="360" stroke="#a78bfa" stroke-width="0.6" stroke-opacity="0.12"/>
  <line x1="490" y1="380" x2="520" y2="310" stroke="#a78bfa" stroke-width="0.6" stroke-opacity="0.12"/>
  <line x1="470" y1="180" x2="510" y2="220" stroke="#a78bfa" stroke-width="0.6" stroke-opacity="0.12"/>
  <line x1="470" y1="180" x2="470" y2="260" stroke="#a78bfa" stroke-width="0.6" stroke-opacity="0.12"/>
  <line x1="540" y1="190" x2="510" y2="220" stroke="#a78bfa" stroke-width="0.6" stroke-opacity="0.12"/>
  <line x1="540" y1="190" x2="580" y2="280" stroke="#a78bfa" stroke-width="0.6" stroke-opacity="0.12"/>

  <!-- Central to right -->
  <line x1="580" y1="280" x2="660" y2="310" stroke="#a78bfa" stroke-width="0.6" stroke-opacity="0.12"/>
  <line x1="580" y1="280" x2="700" y2="260" stroke="#a78bfa" stroke-width="0.8" stroke-opacity="0.25" stroke-dasharray="4 6"/>
  <line x1="660" y1="310" x2="700" y2="260" stroke="#a78bfa" stroke-width="0.6" stroke-opacity="0.12"/>
  <line x1="660" y1="310" x2="720" y2="350" stroke="#a78bfa" stroke-width="0.6" stroke-opacity="0.12"/>
  <line x1="700" y1="260" x2="760" y2="290" stroke="#a78bfa" stroke-width="0.6" stroke-opacity="0.12"/>
  <line x1="720" y1="350" x2="760" y2="290" stroke="#a78bfa" stroke-width="0.6" stroke-opacity="0.12"/>
  <line x1="650" y1="200" x2="700" y2="260" stroke="#a78bfa" stroke-width="0.6" stroke-opacity="0.12"/>
  <line x1="650" y1="200" x2="580" y2="280" stroke="#a78bfa" stroke-width="0.6" stroke-opacity="0.12"/>
  <line x1="680" y1="380" x2="660" y2="310" stroke="#a78bfa" stroke-width="0.6" stroke-opacity="0.12"/>
  <line x1="680" y1="380" x2="720" y2="350" stroke="#a78bfa" stroke-width="0.6" stroke-opacity="0.12"/>

  <!-- Agent cluster (gold) -->
  <line x1="760" y1="290" x2="840" y2="250" stroke="#fbbf24" stroke-width="0.8" stroke-opacity="0.25" stroke-dasharray="4 6"/>
  <line x1="760" y1="290" x2="830" y2="330" stroke="#fbbf24" stroke-width="0.6" stroke-opacity="0.12"/>
  <line x1="840" y1="250" x2="830" y2="330" stroke="#fbbf24" stroke-width="0.6" stroke-opacity="0.12"/>
  <line x1="840" y1="250" x2="880" y2="300" stroke="#fbbf24" stroke-width="0.6" stroke-opacity="0.12"/>
  <line x1="830" y1="330" x2="880" y2="300" stroke="#fbbf24" stroke-width="0.8" stroke-opacity="0.25" stroke-dasharray="4 6"/>
  <line x1="800" y1="200" x2="840" y2="250" stroke="#fbbf24" stroke-width="0.6" stroke-opacity="0.12"/>
  <line x1="800" y1="200" x2="760" y2="290" stroke="#fbbf24" stroke-width="0.6" stroke-opacity="0.12"/>
  <line x1="810" y1="380" x2="830" y2="330" stroke="#fbbf24" stroke-width="0.6" stroke-opacity="0.12"/>
  <line x1="810" y1="380" x2="760" y2="290" stroke="#fbbf24" stroke-width="0.6" stroke-opacity="0.12"/>

  <!-- Motor cluster (red) -->
  <line x1="880" y1="300" x2="960" y2="260" stroke="#ff3d71" stroke-width="0.8" stroke-opacity="0.25" stroke-dasharray="4 6"/>
  <line x1="880" y1="300" x2="950" y2="340" stroke="#ff3d71" stroke-width="0.6" stroke-opacity="0.12"/>
  <line x1="960" y1="260" x2="950" y2="340" stroke="#ff3d71" stroke-width="0.6" stroke-opacity="0.12"/>
  <line x1="960" y1="260" x2="1020" y2="230" stroke="#ff3d71" stroke-width="0.6" stroke-opacity="0.12"/>
  <line x1="950" y1="340" x2="1020" y2="310" stroke="#ff3d71" stroke-width="0.6" stroke-opacity="0.12"/>
  <line x1="1020" y1="230" x2="1020" y2="310" stroke="#ff3d71" stroke-width="0.6" stroke-opacity="0.12"/>
  <line x1="1020" y1="230" x2="1070" y2="270" stroke="#ff3d71" stroke-width="0.8" stroke-opacity="0.25" stroke-dasharray="4 6"/>
  <line x1="1020" y1="310" x2="1070" y2="270" stroke="#ff3d71" stroke-width="0.6" stroke-opacity="0.12"/>
  <line x1="1070" y1="270" x2="1100" y2="220" stroke="#ff3d71" stroke-width="0.6" stroke-opacity="0.12"/>
  <line x1="1070" y1="270" x2="1110" y2="320" stroke="#ff3d71" stroke-width="0.6" stroke-opacity="0.12"/>
  <line x1="1100" y1="220" x2="1110" y2="320" stroke="#ff3d71" stroke-width="0.6" stroke-opacity="0.12"/>
  <line x1="990" y1="370" x2="950" y2="340" stroke="#ff3d71" stroke-width="0.6" stroke-opacity="0.12"/>
  <line x1="990" y1="370" x2="1020" y2="310" stroke="#ff3d71" stroke-width="0.6" stroke-opacity="0.12"/>
  <line x1="940" y1="195" x2="960" y2="260" stroke="#ff3d71" stroke-width="0.6" stroke-opacity="0.12"/>
  <line x1="940" y1="195" x2="1020" y2="230" stroke="#ff3d71" stroke-width="0.6" stroke-opacity="0.12"/>
  <line x1="1060" y1="370" x2="1070" y2="270" stroke="#ff3d71" stroke-width="0.6" stroke-opacity="0.12"/>
  <line x1="1060" y1="370" x2="1020" y2="310" stroke="#ff3d71" stroke-width="0.6" stroke-opacity="0.12"/>
  <line x1="1060" y1="370" x2="1110" y2="320" stroke="#ff3d71" stroke-width="0.6" stroke-opacity="0.12"/>

  <!-- Cross-type connections -->
  <line x1="200" y1="270" x2="320" y2="270" stroke="#5eead4" stroke-width="0.5" stroke-opacity="0.08"/>
  <line x1="170" y1="350" x2="350" y2="370" stroke="#5eead4" stroke-width="0.5" stroke-opacity="0.08"/>
  <line x1="700" y1="260" x2="840" y2="250" stroke="#c4b5fd" stroke-width="0.5" stroke-opacity="0.08"/>
  <line x1="720" y1="350" x2="830" y2="330" stroke="#c4b5fd" stroke-width="0.5" stroke-opacity="0.08"/>

  <!-- ═══ NEURON NODES ═══ -->

  <!-- Sensory neurons (cyan) -->
  <circle cx="95" cy="210" r="12" fill="url(#gS)"/><circle cx="95" cy="210" r="2.5" fill="#00e5ff"/>
  <circle cx="130" cy="185" r="10" fill="url(#gS)"/><circle cx="130" cy="185" r="2" fill="#00e5ff"/>
  <circle cx="80" cy="250" r="10" fill="url(#gS)"/><circle cx="80" cy="250" r="2" fill="#00e5ff"/>
  <circle cx="160" cy="195" r="11" fill="url(#gS)"/><circle cx="160" cy="195" r="2.5" fill="#00e5ff"/>
  <circle cx="200" cy="270" r="14" fill="url(#gS)"/><circle cx="200" cy="270" r="3" fill="#00e5ff"/>
  <circle cx="140" cy="280" r="9" fill="url(#gS)"/><circle cx="140" cy="280" r="2" fill="#00e5ff"/>
  <circle cx="150" cy="295" r="9" fill="url(#gS)"/><circle cx="150" cy="295" r="1.8" fill="#00e5ff"/>
  <circle cx="85" cy="355" r="10" fill="url(#gS)"/><circle cx="85" cy="355" r="2" fill="#00e5ff"/>
  <circle cx="110" cy="380" r="9" fill="url(#gS)"/><circle cx="110" cy="380" r="1.8" fill="#00e5ff"/>
  <circle cx="170" cy="350" r="10" fill="url(#gS)"/><circle cx="170" cy="350" r="2" fill="#00e5ff"/>
  <circle cx="145" cy="400" r="8" fill="url(#gS)"/><circle cx="145" cy="400" r="1.5" fill="#00e5ff"/>

  <!-- Interneurons (purple) -->
  <circle cx="280" cy="320" r="13" fill="url(#gI)"/><circle cx="280" cy="320" r="3" fill="#a78bfa"/>
  <circle cx="280" cy="340" r="10" fill="url(#gI)"/><circle cx="280" cy="340" r="2" fill="#a78bfa"/>
  <circle cx="340" cy="230" r="11" fill="url(#gI)"/><circle cx="340" cy="230" r="2.5" fill="#a78bfa"/>
  <circle cx="320" cy="270" r="12" fill="url(#gI)"/><circle cx="320" cy="270" r="2.5" fill="#a78bfa"/>
  <circle cx="300" cy="190" r="9" fill="url(#gI)"/><circle cx="300" cy="190" r="2" fill="#a78bfa"/>
  <circle cx="350" cy="370" r="10" fill="url(#gI)"/><circle cx="350" cy="370" r="2" fill="#a78bfa"/>
  <circle cx="310" cy="400" r="8" fill="url(#gI)"/><circle cx="310" cy="400" r="1.5" fill="#a78bfa"/>
  <circle cx="380" cy="290" r="14" fill="url(#gI)"/><circle cx="380" cy="290" r="3.5" fill="#a78bfa"/>
  <circle cx="470" cy="260" r="12" fill="url(#gI)"/><circle cx="470" cy="260" r="2.5" fill="#a78bfa"/>
  <circle cx="520" cy="310" r="13" fill="url(#gI)"/><circle cx="520" cy="310" r="3" fill="#a78bfa"/>
  <circle cx="510" cy="220" r="10" fill="url(#gI)"/><circle cx="510" cy="220" r="2" fill="#a78bfa"/>
  <circle cx="580" cy="280" r="14" fill="url(#gI)"/><circle cx="580" cy="280" r="3.5" fill="#a78bfa"/>
  <circle cx="450" cy="360" r="9" fill="url(#gI)"/><circle cx="450" cy="360" r="2" fill="#a78bfa"/>
  <circle cx="490" cy="380" r="8" fill="url(#gI)"/><circle cx="490" cy="380" r="1.5" fill="#a78bfa"/>
  <circle cx="470" cy="180" r="9" fill="url(#gI)"/><circle cx="470" cy="180" r="2" fill="#a78bfa"/>
  <circle cx="540" cy="190" r="8" fill="url(#gI)"/><circle cx="540" cy="190" r="1.5" fill="#a78bfa"/>
  <circle cx="660" cy="310" r="12" fill="url(#gI)"/><circle cx="660" cy="310" r="2.5" fill="#a78bfa"/>
  <circle cx="700" cy="260" r="13" fill="url(#gI)"/><circle cx="700" cy="260" r="3" fill="#a78bfa"/>
  <circle cx="720" cy="350" r="10" fill="url(#gI)"/><circle cx="720" cy="350" r="2" fill="#a78bfa"/>
  <circle cx="760" cy="290" r="14" fill="url(#gI)"/><circle cx="760" cy="290" r="3.5" fill="#a78bfa"/>
  <circle cx="650" cy="200" r="9" fill="url(#gI)"/><circle cx="650" cy="200" r="2" fill="#a78bfa"/>
  <circle cx="680" cy="380" r="8" fill="url(#gI)"/><circle cx="680" cy="380" r="1.5" fill="#a78bfa"/>

  <!-- Agent neurons (gold) -->
  <circle cx="840" cy="250" r="14" fill="url(#gA)"/><circle cx="840" cy="250" r="3.5" fill="#fbbf24"/>
  <circle cx="830" cy="330" r="11" fill="url(#gA)"/><circle cx="830" cy="330" r="2.5" fill="#fbbf24"/>
  <circle cx="880" cy="300" r="16" fill="url(#gA)"/><circle cx="880" cy="300" r="4" fill="#fbbf24"/>
  <circle cx="800" cy="200" r="9" fill="url(#gA)"/><circle cx="800" cy="200" r="2" fill="#fbbf24"/>
  <circle cx="810" cy="380" r="9" fill="url(#gA)"/><circle cx="810" cy="380" r="2" fill="#fbbf24"/>

  <!-- Motor neurons (red/pink) -->
  <circle cx="960" cy="260" r="12" fill="url(#gM)"/><circle cx="960" cy="260" r="2.5" fill="#ff3d71"/>
  <circle cx="950" cy="340" r="11" fill="url(#gM)"/><circle cx="950" cy="340" r="2.5" fill="#ff3d71"/>
  <circle cx="1020" cy="230" r="12" fill="url(#gM)"/><circle cx="1020" cy="230" r="2.5" fill="#ff3d71"/>
  <circle cx="1020" cy="310" r="11" fill="url(#gM)"/><circle cx="1020" cy="310" r="2.5" fill="#ff3d71"/>
  <circle cx="1070" cy="270" r="13" fill="url(#gM)"/><circle cx="1070" cy="270" r="3" fill="#ff3d71"/>
  <circle cx="1100" cy="220" r="10" fill="url(#gM)"/><circle cx="1100" cy="220" r="2" fill="#ff3d71"/>
  <circle cx="1110" cy="320" r="10" fill="url(#gM)"/><circle cx="1110" cy="320" r="2" fill="#ff3d71"/>
  <circle cx="940" cy="195" r="9" fill="url(#gM)"/><circle cx="940" cy="195" r="2" fill="#ff3d71"/>
  <circle cx="990" cy="370" r="9" fill="url(#gM)"/><circle cx="990" cy="370" r="2" fill="#ff3d71"/>
  <circle cx="1060" cy="370" r="9" fill="url(#gM)"/><circle cx="1060" cy="370" r="1.8" fill="#ff3d71"/>

  <!-- ═══ TYPOGRAPHY ═══ -->
  <text x="600" y="510" text-anchor="middle" font-family="'SF Mono','Fira Code','Cascadia Code','JetBrains Mono',monospace" font-weight="700" font-size="64" fill="#e2e8f0" letter-spacing="0.35em">c302</text>
  <text x="600" y="545" text-anchor="middle" font-family="'SF Mono','Fira Code','Cascadia Code','JetBrains Mono',monospace" font-weight="400" font-size="13" fill="#94a3b8" opacity="0.5">connectome-driven agent modulation</text>

  <!-- Legend -->
  <circle cx="38" cy="530" r="3" fill="#00e5ff"/>
  <text x="46" y="533.5" font-family="'SF Mono','Fira Code','Cascadia Code',monospace" font-size="9" fill="#64748b">sensory</text>
  <circle cx="113" cy="530" r="3" fill="#a78bfa"/>
  <text x="121" y="533.5" font-family="'SF Mono','Fira Code','Cascadia Code',monospace" font-size="9" fill="#64748b">inter</text>
  <circle cx="168" cy="530" r="3" fill="#fbbf24"/>
  <text x="176" y="533.5" font-family="'SF Mono','Fira Code','Cascadia Code',monospace" font-size="9" fill="#64748b">agent</text>
  <circle cx="228" cy="530" r="3" fill="#ff3d71"/>
  <text x="236" y="533.5" font-family="'SF Mono','Fira Code','Cascadia Code',monospace" font-size="9" fill="#64748b">motor</text>

  <text x="1162" y="548" text-anchor="end" font-family="'SF Mono','Fira Code','Cascadia Code',monospace" font-size="9" fill="#475569">302 neurons</text>
</svg>